<?xml version="1.0" encoding="utf-8"?>
<!-- Generator: Adobe Illustrator 24.0.3, SVG Export Plug-In . SVG Version: 6.00 Build 0)  -->
<svg version="1.1" id="Capa_1" xmlns="http://www.w3.org/2000/svg" xmlns:xlink="http://www.w3.org/1999/xlink" x="0px" y="0px"
	 viewBox="0 0 512 512" style="enable-background:new 0 0 512 512;" xml:space="preserve">
<style type="text/css">
	.st0{fill:#FFFFFF;}
</style>
<g>
	<g>
		<path class="st0" d="M336.1,40c-5.5,0-10,4.5-10,10s4.5,10,10,10s10-4.5,10-10S341.6,40,336.1,40z"/>
	</g>
</g>
<g>
	<g>
		<path class="st0" d="M176.1,40c-5.5,0-10,4.5-10,10s4.5,10,10,10s10-4.5,10-10S181.6,40,176.1,40z"/>
	</g>
</g>
<g>
	<g>
		<path class="st0" d="M464,495.1L397.9,426c26.7-1,48.2-23,48.2-50V79.3c0-16.2-5.6-31.9-15.9-44.4c-10.3-12.5-24.6-21.1-40.5-24.2
			C354.2,3.6,317.8,0,281.7,0h-52.8c-34.4,0-70.2,3.3-106.5,10.5c-32.6,6.5-56.3,35.4-56.3,68.6V376c0,27.2,21.8,49.4,48.9,50
			L48,495c-2.8,2.9-3.6,7.2-2,10.9c1.6,3.7,5.2,6.1,9.2,6.1h71.5c3.2,0,6.2-1.5,8.1-4.1l30.3-41.9h182.8l30.3,41.9
			c1.9,2.6,4.9,4.1,8.1,4.1h70.5c4,0,7.6-2.4,9.2-6.1C467.6,502.2,466.8,498,464,495.1z M86.1,376V79.2c0-23.8,16.9-44.4,40.2-49
			C158.9,23.6,193.4,20,228.8,20h52.8c34.9,0,69.9,3.4,104.1,10.2c11.3,2.2,21.6,8.4,28.9,17.3c7.3,8.9,11.4,20.2,11.4,31.7V376
			c0,16.5-13.5,30-30,30h-280C99.5,406,86.1,392.5,86.1,376z M121.6,492H78.8l63.9-66h26.7L121.6,492z M179.6,446l14.5-20h124.8
			l14.5,20H179.6z M391.4,492l-47.8-66h26.6l63.2,66H391.4z"/>
	</g>
</g>
<g>
	<g>
		<path class="st0" d="M396.1,80h-280c-5.5,0-10,4.5-10,10v166c0,5.5,4.5,10,10,10h280c5.5,0,10-4.5,10-10V90
			C406.1,84.5,401.6,80,396.1,80z M246.1,246h-120V100h120V246z M386.1,246h-120V100h120V246z"/>
	</g>
</g>
<g>
	<g>
		<path class="st0" d="M296.1,40h-80c-5.5,0-10,4.5-10,10s4.5,10,10,10h80c5.5,0,10-4.5,10-10S301.6,40,296.1,40z"/>
	</g>
</g>
<g>
	<g>
		<path class="st0" d="M366.1,296c-22.1,0-40,17.9-40,40s17.9,40,40,40s40-17.9,40-40S388.1,296,366.1,296z M366.1,356
			c-11,0-20-9-20-20s9-20,20-20s20,9,20,20S377.1,356,366.1,356z"/>
	</g>
</g>
<g>
	<g>
		<path class="st0" d="M146.1,296c-22.1,0-40,17.9-40,40s17.9,40,40,40c22.1,0,40-17.9,40-40S168.1,296,146.1,296z M146.1,356
			c-11,0-20-9-20-20s9-20,20-20s20,9,20,20S157.1,356,146.1,356z"/>
	</g>
</g>
<g>
	<g>
		<path class="st0" d="M296.1,306h-80c-5.5,0-10,4.5-10,10s4.5,10,10,10h80c5.5,0,10-4.5,10-10S301.6,306,296.1,306z"/>
	</g>
</g>
<g>
	<g>
		<path class="st0" d="M296.1,346h-80c-5.5,0-10,4.5-10,10s4.5,10,10,10h80c5.5,0,10-4.5,10-10S301.6,346,296.1,346z"/>
	</g>
</g>
</svg>
